:SAMPLES-PER-SECOND 30
:FULLY-SPECIFIED
:DEGREES
143
root  36.2924 38.1652 5.14808 -102.716 -89.1652 97.2424
RightUpLeg  15.0787 -8.57907 -1.91941
RightLeg  12.8329 4.98013 0.962235
RightFoot  -20.6426 -0.297839 -1.94378
RightToes  -6.40286e-010 0 -3.6325e-017
Spine  2.33287 2.07608 8.09267
Spine1  9.78166 4.43121 -7.67959
HEad  -12.295 -9.9805 0.574951
LeftShoulder1  -0.481333 4.7529 -32.3887
LeftArm  -1.23252 15.5353 -41.0316
LeftForeArm  31.8562 -12.1019 -7.73745
LeftHand  -0.0266472 7.9682 0.693775
RightShoulder  -0.685432 -5.53096 27.1263
RightArm  29.0995 16.017 54.5221
RightForeArm  5.25835 22.1465 4.73773
RightHand  -0.341733 6.77493 -3.60694
LeftUpLeg  -16.9454 1.79264 -0.874267
LeftLeg  4.03043 0.844237 -0.222183
LeftFoot  5.63718 0.44809 -3.42915
LeftToes  1.32783e-010 1.73515e-011 1.59258e-011
144
root  34.9854 37.9721 5.31938 -116.082 -88.531 110.179
RightUpLeg  17.2273 -8.09111 -3.11003
RightLeg  13.9278 5.3929 0.867393
RightFoot  -21.8714 -0.167634 -0.21819
RightToes  -6.40286e-010 0 -3.6325e-017
Spine  1.99381 2.29857 6.63881
Spine1  10.5105 4.6325 -7.42453
HEad  -11.8556 -9.21207 0.711041
LeftShoulder1  -0.481014 4.7627 -32.0387
LeftArm  -1.71144 14.8462 -41.6705
LeftForeArm  32.289 -11.8244 -7.79802
LeftHand  -0.00147278 8.55386 1.5346
RightShoulder  -0.765999 -5.71766 27.9717
RightArm  29.0669 13.637 53.602
RightForeArm  5.52691 19.707 5.35549
RightHand  -0.344854 6.99524 -3.58207
LeftUpLeg  -17.7417 1.80285 -2.24418
LeftLeg  9.44456 1.03689 0.149099
LeftFoot  9.42885 -0.466715 2.31804
LeftToes  1.32783e-010 1.73515e-011 1.59258e-011
145
root  33.6187 37.8178 5.49885 -119.952 -87.1212 113.486
RightUpLeg  18.5785 -6.01388 -4.61336
RightLeg  16.7568 4.74497 0.831924
RightFoot  -22.6288 0.122556 2.74345
RightToes  -6.40286e-010 0 -3.6325e-017
Spine  2.16089 2.50371 4.06399
Spine1  10.2391 4.57946 -6.52794
HEad  -11.6648 -9.22988 0.96805
LeftShoulder1  -0.609689 5.06227 -32.9747
LeftArm  -1.47997 14.0467 -40.7292
LeftForeArm  32.0117 -11.851 -7.81623
LeftHand  -0.0224921 7.90861 0.868324
RightShoulder  -0.821878 -5.83367 28.6579
RightArm  26.1739 10.7626 52.9864
RightForeArm  9.65359 15.5974 6.94796
RightHand  -0.308713 6.08014 -3.44776
LeftUpLeg  -18.0901 1.65856 -3.99745
LeftLeg  15.3114 1.46448 0.688544
LeftFoot  8.3373 -1.04991 5.77083
LeftToes  1.32783e-010 1.73515e-011 1.59258e-011
146
root  32.2825 37.7115 5.67397 -113.157 -85.9056 106.215
RightUpLeg  18.4681 -3.34358 -5.92497
RightLeg  22.0929 3.42336 1.37421
RightFoot  -22.1708 0.573613 7.72632
RightToes  -6.40286e-010 0 -3.6325e-017
Spine  2.05428 2.4767 1.79147
Spine1  10.242 4.37542 -6.30276
HEad  -11.9605 -9.77576 1.02569
LeftShoulder1  -0.67414 5.21353 -33.2743
LeftArm  -2.08674 13.2451 -40.3975
LeftForeArm  31.4162 -11.6839 -7.7438
LeftHand  0.00707927 8.46619 1.90405
RightShoulder  -0.907069 -6.01614 29.5238
RightArm  20.5446 7.75465 52.5794
RightForeArm  16.5785 9.83929 8.70962
RightHand  -0.198688 4.94711 -2.5338
LeftUpLeg  -17.8686 1.17602 -5.65491
LeftLeg  20.2673 2.27905 1.25909
LeftFoot  4.3572 -0.923862 6.49356
LeftToes  1.32783e-010 1.73515e-011 1.59258e-011
147
root  31.1171 37.769 5.87471 -121.378 -84.6245 114.267
RightUpLeg  15.8138 -1.52581 -7.54097
RightLeg  30.173 4.18705 2.42195
RightFoot  -18.3612 0.723453 14.3058
RightToes  -6.40286e-010 0 -3.6325e-017
Spine  2.19077 2.8607 0.830307
Spine1  10.3437 4.71667 -7.46148
HEad  -11.0394 -9.47592 0.190333
LeftShoulder1  -0.648986 5.15006 -33.2636
LeftArm  -3.29381 12.3152 -40.5005
LeftForeArm  31.5464 -11.4065 -7.53516
LeftHand  -0.020294 8.21809 0.953577
RightShoulder  -0.94173 -6.09986 29.7021
RightArm  17.2508 4.08959 52.3879
RightForeArm  21.817 5.02559 9.07659
RightHand  -0.0827171 4.54729 -1.26482
LeftUpLeg  -16.477 3.17323 -6.87019
LeftLeg  21.9251 1.71744 1.10339
LeftFoot  1.3523 -0.762751 6.76173
LeftToes  1.32783e-010 1.73515e-011 1.59258e-011
148
root  30.0026 37.8936 6.08016 -129.39 -82.9803 122.424
RightUpLeg  10.3612 0.231594 -9.63187
RightLeg  40.8579 4.9038 4.26163
RightFoot  -10.1714 -0.179353 17.6512
RightToes  -6.40286e-010 0 -3.6325e-017
Spine  2.32943 2.96393 -0.406093
Spine1  9.82798 4.69115 -8.1014
HEad  -10.8965 -8.7036 -0.287702
LeftShoulder1  -0.623398 5.10067 -32.881
LeftArm  -2.42082 12.3342 -40.8997
LeftForeArm  29.3301 -12.8373 -7.10711
LeftHand  -0.0264207 7.98408 0.679194
RightShoulder  -0.879481 -5.92995 29.6542
RightArm  17.5081 0.735809 52.41
RightForeArm  26.3864 2.22011 9.3411
RightHand  -0.0576499 3.01705 -1.02036
LeftUpLeg  -14.7557 4.80054 -8.01577
LeftLeg  22.0801 1.96937 1.22151
LeftFoot  -0.915454 -0.582238 6.43283
LeftToes  1.32783e-010 1.73515e-011 1.59258e-011
